PathFileType	4	(X/Y/Z)	Walk1.trc
DataRate	CameraRate	NumFrames	NumMarkers	Units	OrigDataRate	OrigDataStartFrame	OrigNumFrames
200.000000	200.000000	7	59	mm	200.000000	404	485
Frame#	Times		LFHD		RFHD		LBHD		RBHD		C7		T10		CLAV		STRN		RBack		LASI		RASI		LPSI		RPSI		RACR1		RUA1		RElbow		RElbowM		RFA1		RWRR		RWRU		RCAR		LACR1		LUA1		LElbow		LElbowM		LFA1		LWRR		LCAR		RTH1		RTH3		RTH2		RTH4		RLFC		RTB1		RTB3		RTB2		RTB4		RLMAL		RMT1		RMT5		LTH1		LTH3		LTH2		LTH4		LLFC		LTB1		LTB3		LTB2		LTB4		LLMAL		LMMAL		LMT1		LMT5		LToe		RMMAL		LWRU		RToe		LCAL		RCAL
			X1	Y1	Z1	X2	Y2	Z2	X3	Y3	Z3	X4	Y4	Z4	X5	Y5	Z5	X6	Y6	Z6	X7	Y7	Z7	X8	Y8	Z8	X9	Y9	Z9	X10	Y10	Z10	X11	Y11	Z11	X12	Y12	Z12	X13	Y13	Z13	X14	Y14	Z14	X15	Y15	Z15	X16	Y16	Z16	X17	Y17	Z17	X18	Y18	Z18	X19	Y19	Z19	X20	Y20	Z20	X21	Y21	Z21	X22	Y22	Z22	X23	Y23	Z23	X24	Y24	Z24	X25	Y25	Z25	X26	Y26	Z26	X27	Y27	Z27	X28	Y28	Z28	X29	Y29	Z29	X30	Y30	Z30	X31	Y31	Z31	X32	Y32	Z32	X33	Y33	Z33	X34	Y34	Z34	X35	Y35	Z35	X36	Y36	Z36	X37	Y37	Z37	X38	Y38	Z38	X39	Y39	Z39	X40	Y40	Z40	X41	Y41	Z41	X42	Y42	Z42	X43	Y43	Z43	X44	Y44	Z44	X45	Y45	Z45	X46	Y46	Z46	X47	Y47	Z47	X48	Y48	Z48	X49	Y49	Z49	X50	Y50	Z50	X51	Y51	Z51	X52	Y52	Z52	X53	Y53	Z53	X54	Y54	Z54	X55	Y55	Z55	X56	Y56	Z56	X57	Y57	Z57	X58	Y58	Z58	X59	Y59	Z59

404	2.02	885.56	1576.9	-114.23	898.83	1578.2	-20.68	736.33	1515.1	-120.91	751.28	1524.7	19.923	714.89	1393.4	-48.35	654.11	1123.4	-40.314	856.09	1318.5	-56.807	919.12	1216.4	-49.908	666.4	1299.2	61.414	932.78	947.57	-167.16	912.42	957.44	118	673.44	935.93	-75.059	672.89	938.86	14.349	792.64	1358.3	99.625	788.15	1182.1	204.8	754.05	1058.1	236.62	756.37	1020.2	142.73	796.47	916.48	258.51	902.91	843.31	229.41	848.81	819.28	269.97	923.36	799.76	284.5	783.66	1343.8	-211.98	753.37	1156.3	-290.49	701.06	1033.9	-301.44	676.73	1015.2	-223.54	679.16	901.16	-314.98	732.44	779.57	-279	724.61	728.81	-317.45	822.8	714.84	189.37	778.65	553.76	150.16	851.11	627.85	142.47	798.34	633.92	167.25	750.3	469.22	132.12	682.8	312.82	64.612	551.55	201.8	67.212	604.75	274.03	122.7	616.44	256.73	63.362	441.37	152.5	96.609	489.08	42.297	32.382	466.08	55.522	104.53	864.37	740.39	-240.79	929.44	590.86	-186.64	948.18	693.98	-202.42	895.86	667.35	-209.17	971.95	480.38	-150.99	1037	345.94	-74.764	1033.6	173.51	-79.992	1014.3	259.97	-133.42	1035	259.29	-75.833	1003	59.208	-107.11	1011.9	64.69	-23.529	1115.8	31.356	-42.17	1085.2	25.758	-120.51	1184.6	27.76	-68.856	455.33	148.73	14.495	676.2	784.81	-323.11	539.2	24.528	63.317	937.24	31.407	-73.329	376.09	176.25	61.063
405	2.025	891.21	1577.7	-115.44	904.41	1579.3	-21.802	742.13	1515.7	-122.13	756.88	1525.5	18.883	720.34	1394.3	-49.74	660.04	1124	-40.986	861.72	1319.3	-57.796	924.93	1217.6	-50.956	672.23	1300.4	60.463	938.99	949.29	-168.11	917.93	958.5	116.92	679.38	936.74	-75.234	678.66	939.35	14.007	798.38	1359.3	98.256	793.62	1183.1	203.49	758.74	1059.4	235.25	761.53	1021.3	141.16	799.79	917.14	257.04	905.54	842.94	228.19	851.01	819.14	268.67	925.62	799.01	283.21	789.71	1344.5	-212.83	760.44	1157	-291.47	708.66	1034.3	-302.64	684.04	1015.6	-224.88	687.92	901.3	-316.17	741.48	780.27	-279.45	734.24	729.33	-317.79	830.55	714.68	188.43	789.04	552.6	150.24	860.29	627.99	141.62	807.57	633.27	166.61	761.33	467.94	132.4	693.02	312.11	65.511	560.01	203.65	67.54	613.62	274.89	123.12	625.51	257.18	63.884	448.8	155.51	96.154	490.8	43.013	32.291	469.17	57.262	103.56	871.35	742.07	-241.94	934.12	591.54	-187.31	954.13	694.29	-202.97	901.38	668.29	-210.01	975.22	480.51	-151.59	1039.3	345.79	-75.505	1034.4	173.24	-80.376	1015.8	259.91	-133.84	1036.6	259.14	-76.281	1003.1	59.826	-107.12	1012	64.857	-23.583	1115.8	31.278	-41.846	1085.2	25.742	-120.53	1184.6	27.28	-68.688	463.21	151.44	14.275	685.46	785.23	-324.47	539.33	24.467	63.434	937.23	31.409	-73.448	384.68	181.51	59.895
406	2.03	896.81	1578.4	-116.53	910.01	1580.2	-22.872	747.87	1516.2	-123.24	762.75	1526.5	17.734	725.93	1395	-50.979	665.81	1124.9	-42.076	867.53	1320.3	-58.704	930.54	1218.6	-51.938	677.78	1301.5	59.634	945.03	951	-169.07	924.06	959.51	116	685.18	937.68	-75.571	684.72	939.91	13.571	803.97	1360.3	97.223	798.89	1184.1	202.27	763.23	1060.2	234.02	766.33	1022.3	139.57	803.18	917.87	255.88	908.2	842.48	226.96	853.06	819.29	267.52	927.52	798.17	281.94	795.79	1345.3	-213.7	767.43	1157.7	-292.43	716.33	1034.9	-303.96	691.25	1015.9	-226.3	696.57	901.6	-317.25	750.57	780.95	-280.01	744.11	729.81	-318.45	837.77	714.47	187.46	799.32	551.79	150.2	869.11	628.05	140.79	816.4	632.62	165.92	772.92	466.81	132.82	703.69	311.67	66.544	568.64	205.16	67.959	622.92	275.85	123.44	635.18	257.64	64.528	456.61	158.6	95.795	493.74	44.256	32.128	472.75	58.838	102.44	878.11	743.52	-243.15	938.64	592.27	-188.26	959.82	694.5	-203.49	906.77	669.37	-210.94	978.19	480.62	-152.25	1041.6	345.66	-76.086	1035.6	173.16	-80.545	1017.4	259.83	-134.23	1038.1	259.06	-76.732	1003	59.172	-107.26	1012.2	65.037	-23.641	1115.7	31.29	-41.77	1085.2	25.705	-120.54	1184.6	26.922	-68.611	471.61	153.95	14.312	694.93	785.55	-325.86	539.83	24.298	63.42	937.26	31.277	-73.437	393.78	186.33	58.716
407	2.035	902.56	1579.3	-117.56	915.49	1581.2	-23.934	753.59	1516.8	-124.49	768.13	1527.4	16.662	731.62	1395.9	-52.293	671.42	1125.8	-43.191	873.17	1321.2	-59.521	936.37	1219.8	-52.889	683.4	1302.2	58.771	951.25	952.76	-170.06	929.5	960.45	115.19	691.05	938.35	-76.227	690.47	940.33	12.908	809.56	1361.4	96.147	804.43	1185	201.35	768.01	1061.2	232.69	770.79	1023.6	138.26	806.5	918.45	254.39	910.88	842.07	225.83	855.7	819.63	266.24	929.78	797.42	280.61	801.84	1346.1	-214.53	774.51	1158.5	-293.41	724.04	1035.5	-305.26	698.7	1016.2	-227.99	705.06	901.9	-318.39	760.64	781.59	-280.94	754.13	730.56	-318.93	844.92	714.46	186.55	809.53	550.69	150.04	878.12	628.2	140.13	825.52	632.14	165.22	784.21	465.85	133.31	714.47	311.25	67.685	577.53	206.42	68.235	632.35	276.75	123.91	645.42	258.16	65.318	464.57	161.3	95.609	497.27	45.607	31.895	476.3	60.199	101.31	884.82	744.9	-244.34	942.59	592.9	-189.15	965.25	694.62	-203.83	912.36	670.29	-212.36	980.86	480.66	-152.99	1043.4	345.44	-76.504	1036.6	173.13	-80.594	1019	259.67	-134.61	1039.5	258.85	-76.977	1003.2	59.508	-107.27	1012.2	65.153	-23.745	1115.7	31.249	-41.694	1085.2	25.681	-120.56	1184.6	26.719	-68.575	480.33	156.14	14.724	704.48	785.86	-327.1	540.66	23.997	63.334	937.33	31.248	-73.33	403.16	191.19	57.368
408	2.04	908.12	1580	-118.64	921.17	1582.1	-25.04	759.22	1517.5	-125.63	773.92	1528.4	15.545	737.15	1396.5	-53.097	676.89	1126.4	-44.101	878.73	1322.2	-60.337	941.85	1220.8	-53.732	689.15	1303.3	57.656	957.24	954.44	-170.98	935.1	961.4	114.28	696.76	939.58	-77.094	696.19	940.78	12.212	815.08	1362.3	95.157	810	1186.1	200.16	772.97	1062.1	231.4	775.59	1024.9	137.02	809.96	919.21	253.29	913.12	841.89	224.75	858.04	819.98	265.09	931.79	796.55	279.31	807.9	1346.8	-215.38	781.56	1159.2	-294.35	731.68	1036	-306.48	706.24	1016.8	-229.31	713.72	902.03	-319.57	771.49	782.28	-281.97	764.1	731.16	-319.43	852.69	714.59	185.47	819.97	550.17	150.09	887.53	628.63	139.47	834.31	631.79	164.58	795.44	465.17	133.83	725.45	310.78	68.874	586.74	207.66	68.925	642.1	277.67	124.56	655.91	258.81	66.215	472.7	164.1	95.694	501.71	47.668	31.69	480.09	61.341	99.869	891.42	746.36	-245.53	946.27	593.51	-190.11	970.42	694.87	-203.91	917.65	671.27	-213.21	983.41	480.77	-153.78	1045.4	345.09	-76.728	1037.4	172.9	-80.627	1020.5	259.43	-134.91	1040.7	258.52	-77.096	1003.3	58.877	-107.32	1012.2	65.182	-23.849	1115.6	31.195	-41.542	1085.2	25.634	-120.59	1184.7	26.603	-68.552	489.5	158.19	14.951	714.54	785.91	-327.16	541.66	23.573	63.414	937.41	31.399	-73.248	412.96	196.07	55.861
409	2.045	913.77	1580.8	-119.76	926.54	1583.1	-26.08	764.88	1518.3	-126.63	779.36	1529.4	14.568	742.74	1397.3	-54.184	682.61	1127	-45.065	884.33	1323.2	-61.158	947.89	1222.1	-54.714	694.43	1304.6	56.839	963.28	956.14	-171.94	940.62	962.33	113.47	702.52	940.84	-78.23	701.91	941.41	11.28	820.38	1363.4	94.177	815.33	1187.1	199.04	777.48	1063.1	230.45	780.34	1026.1	135.95	813.35	919.82	252.09	915.68	841.43	223.6	860.23	820.25	264.1	933.74	795.81	278.09	813.86	1347.8	-216.22	788.78	1160	-295.38	739.29	1036.5	-307.7	713.88	1017.5	-230.38	722.73	902.62	-320.93	780.72	783.12	-282.58	774.53	731.96	-320.19	860.52	714.97	184.27	830.48	550	150.31	896.97	629.2	138.89	843.4	631.74	163.95	806.29	464.59	134.18	736.17	310.36	69.975	595.97	209.02	69.935	652.35	278.67	125.22	666.26	259.4	67.214	481.06	166.79	96.036	506.36	49.536	31.365	484.3	62.669	98.53	897.87	747.79	-246.63	949.36	594.05	-191.13	975.7	695.04	-204.28	922.8	672.49	-214.27	985.98	480.84	-154.56	1047	344.69	-76.759	1038	172.51	-80.579	1022	259.15	-135.07	1041.9	258.18	-77.166	1003.5	58.161	-107.26	1012.2	65.028	-23.896	1115.5	31.194	-41.497	1085.2	25.615	-120.61	1184.7	26.501	-68.528	499.17	160.08	15.258	724.26	786.34	-328.16	542.57	22.735	63.44	937.28	31.465	-73.575	423.37	200.87	54.469
410	2.05	919.35	1581.7	-120.84	932.23	1584.1	-27.237	770.58	1519.1	-127.72	784.87	1530.5	13.301	748.16	1398.2	-55.397	688.21	1127.9	-45.908	889.67	1324.1	-61.853	953.12	1223	-55.517	699.96	1305.4	55.953	968.99	957.74	-172.88	945.79	963.1	112.75	708.23	941.57	-79.058	707.51	942.05	10.757	825.76	1364.4	93.257	820.78	1187.8	197.95	782.14	1064.2	229.38	785.12	1027.1	134.92	816.84	920.39	251.09	917.13	840.97	222.74	862.81	820.49	263.2	935.85	795.04	276.75	819.78	1348.6	-216.98	795.95	1160.9	-296.31	746.98	1037.2	-309.04	721.22	1017.9	-231.71	731.6	902.92	-322.23	789.48	784.22	-283.48	784.78	732.74	-320.74	867.98	715.4	183.18	840.28	549.6	150.12	905.94	630	138.34	852.11	632.06	163.35	817.24	464.11	134.44	747.03	309.96	70.833	605.47	210.25	70.867	662.22	279.52	125.85	676.58	259.82	68.131	489.71	169.47	96.276	510.81	51.339	31.158	488.89	64.498	97.235	904.12	749.12	-247.58	952.59	594.53	-191.88	981.21	695.41	-205.05	927.18	673.63	-214.65	988.21	480.84	-155.3	1048.3	344.18	-76.661	1038.4	171.99	-80.574	1023.6	258.78	-135.05	1043.1	257.8	-77.021	1004	58.276	-107.28	1012.2	64.806	-23.952	1115.4	31.233	-41.471	1085.2	25.587	-120.6	1184.7	26.449	-68.503	509.02	161.71	15.754	733.98	786.96	-330	544.86	22.316	63.646	937.15	31.416	-73.924	433.97	205.42	53.489
